HIERARCHY
ROOT Hips
{
	OFFSET 0.00000 0.00000 0.00000
	CHANNELS 6 Xposition Yposition Zposition Zrotation Yrotation Xrotation 
	JOINT LHipJoint
	{
		OFFSET 0 0 0
		CHANNELS 3 Zrotation Yrotation Xrotation
		JOINT LeftUpLeg
		{
			OFFSET 1.26600 -1.82114 0.91038
			CHANNELS 3 Zrotation Yrotation Xrotation
			JOINT LeftLeg
			{
				OFFSET 2.50076 -6.87080 0.00000
				CHANNELS 3 Zrotation Yrotation Xrotation
				JOINT LeftFoot
				{
					OFFSET 2.57364 -7.07102 0.00000
					CHANNELS 3 Zrotation Yrotation Xrotation
					JOINT LeftToeBase
					{
						OFFSET 0.13572 -0.37290 1.97004
						CHANNELS 3 Zrotation Yrotation Xrotation
						End Site
						{
							OFFSET 0.00000 -0.00000 1.01383
						}
					}
				}
			}
		}
	}
	JOINT RHipJoint
	{
		OFFSET 0 0 0
		CHANNELS 3 Zrotation Yrotation Xrotation
		JOINT RightUpLeg
		{
			OFFSET -1.20803 -1.82114 0.91038
			CHANNELS 3 Zrotation Yrotation Xrotation
			JOINT RightLeg
			{
				OFFSET -2.54916 -7.00377 0.00000
				CHANNELS 3 Zrotation Yrotation Xrotation
				JOINT RightFoot
				{
					OFFSET -2.56374 -7.04382 0.00000
					CHANNELS 3 Zrotation Yrotation Xrotation
					JOINT RightToeBase
					{
						OFFSET -0.23520 -0.64621 2.09921
						CHANNELS 3 Zrotation Yrotation Xrotation
						End Site
						{
							OFFSET -0.00000 -0.00000 1.10065
						}
					}
				}
			}
		}
	}
	JOINT LowerBack
	{
		OFFSET 0 0 0
		CHANNELS 3 Zrotation Yrotation Xrotation
		JOINT Spine
		{
			OFFSET 0.05492 2.10797 -0.12074
			CHANNELS 3 Zrotation Yrotation Xrotation
			JOINT Spine1
			{
				OFFSET 0.04577 2.11592 -0.04483
				CHANNELS 3 Zrotation Yrotation Xrotation
				JOINT Neck
				{
					OFFSET 0 0 0
					CHANNELS 3 Zrotation Yrotation Xrotation
					JOINT Neck1
					{
						OFFSET -0.10759 1.80167 0.15770
						CHANNELS 3 Zrotation Yrotation Xrotation
						JOINT Head
						{
							OFFSET 0.09237 1.77509 -0.40848
							CHANNELS 3 Zrotation Yrotation Xrotation
							End Site
							{
								OFFSET 0.03805 1.84093 -0.15754
							}
						}
					}
				}
				JOINT LeftShoulder
				{
					OFFSET 0 0 0
					CHANNELS 3 Zrotation Yrotation Xrotation
					JOINT LeftArm
					{
						OFFSET 3.42372 1.09575 -0.28209
						CHANNELS 3 Zrotation Yrotation Xrotation
						JOINT LeftForeArm
						{
							OFFSET 4.95681 -0.00000 0.00000
							CHANNELS 3 Zrotation Yrotation Xrotation
							JOINT LeftHand
							{
								OFFSET 3.40915 -0.00000 0.00000
								CHANNELS 3 Zrotation Yrotation Xrotation
								JOINT LeftFingerBase
								{
									OFFSET 0 0 0
									CHANNELS 3 Zrotation Yrotation Xrotation
									JOINT LeftHandIndex1
									{
										OFFSET 0.61640 -0.00000 0.00000
										CHANNELS 3 Zrotation Yrotation Xrotation
										End Site
										{
											OFFSET 0.49696 -0.00000 0.00000
										}
									}
								}
								JOINT LThumb
								{
									OFFSET 0 0 0
									CHANNELS 3 Zrotation Yrotation Xrotation
									End Site
									{
										OFFSET 0.50455 -0.00000 0.50455
									}
								}
							}
						}
					}
				}
				JOINT RightShoulder
				{
					OFFSET 0 0 0
					CHANNELS 3 Zrotation Yrotation Xrotation
					JOINT RightArm
					{
						OFFSET -3.24731 1.15872 -0.32221
						CHANNELS 3 Zrotation Yrotation Xrotation
						JOINT RightForeArm
						{
							OFFSET -5.35200 -0.00000 0.00000
							CHANNELS 3 Zrotation Yrotation Xrotation
							JOINT RightHand
							{
								OFFSET -3.43721 -0.00000 -0.00000
								CHANNELS 3 Zrotation Yrotation Xrotation
								JOINT RightFingerBase
								{
									OFFSET 0 0 0
									CHANNELS 3 Zrotation Yrotation Xrotation
									JOINT RightHandIndex1
									{
										OFFSET -0.72009 -0.00000 0.00000
										CHANNELS 3 Zrotation Yrotation Xrotation
										End Site
										{
											OFFSET -0.58056 -0.00000 0.00000
										}
									}
								}
								JOINT RThumb
								{
									OFFSET 0 0 0
									CHANNELS 3 Zrotation Yrotation Xrotation
									End Site
									{
										OFFSET -0.58942 -0.00000 0.58942
									}
								}
							}
						}
					}
				}
			}
		}
	}
}
MOTION
Frames: 10
Frame Time: .0083333
-1.8495 20.6841 10.5052 0 0 0 0 0 0 -21 0 0 0 0 0 0 0 0 0 0 0 0 0 0 21 0 0 0 0 0 0 0 0 0 0 0 0 0 0 0 0 0 0 0 0 0 0 -16 0 0 21 0 0 11 0 0 0 -8 0 0 0 0 0 0 0 0 0 0 0 0 0 0 0 0 0 0 0 0 8 0 0 0 0 0 0 0 0 0 0 0 0 0 0 0 0 0
-1.8495 20.6841 10.5052 -4.3018 0.8543 2.3041 0.0000 0.0000 0.0000 -15.1608 -3.0146 -10.2059 2.9213 10.5666 30.8318 0.6703 -12.2231 -15.8155 0.4555 4.3294 12.0053 0.0000 0.0000 0.0000 27.6787 1.2813 -9.4144 -2.6218 -10.0560 29.1584 -1.4103 5.0993 -21.3601 -0.0918 -1.9545 5.3800 1.8889 -1.3258 -0.1038 3.2393 -1.7348 -1.0042 2.2756 -0.8691 -0.9270 -9.7900 -3.7071 -13.3753 4.7450 -4.5144 36.7977 2.9859 -2.6616 15.5550 -0.0000 0.0000 0.0000 -88.8910 9.0893 18.3664 16.6653 -26.4145 -3.9373 -0.0000 0.0000 -0.6928 17.2414 17.6921 5.3879 -7.1250 0.0000 -0.0000 -10.4098 48.1707 -0.8226 -0.0000 0.0000 0.0000 86.6476 -2.9997 18.4914 -14.7915 23.8548 -3.1411 0.0000 -0.0000 -5.2557 -20.0387 12.5916 -4.5462 7.1250 -0.0000 -0.0000 5.0034 -16.6378 3.3743
-1.8525 20.6899 10.5023 -4.2408 1.1818 2.4422 0.0000 0.0000 0.0000 -15.2112 -3.2292 -10.5877 3.0040 10.7014 31.2795 0.6909 -12.4196 -16.0617 0.4212 4.1655 11.5429 0.0000 0.0000 0.0000 27.5325 0.5987 -9.8594 -2.6589 -10.1213 29.3703 -1.3761 5.6238 -21.0436 -0.0998 -2.0373 5.6087 1.9469 -1.3992 -0.0849 3.1927 -1.8329 -0.9772 2.1959 -0.9188 -0.9107 -9.4791 -3.3905 -13.6334 4.7040 -4.0844 37.0067 2.9930 -2.4411 15.6611 0.0000 0.0000 0.0000 -88.8483 9.0796 18.6596 16.6551 -26.4008 -3.9327 -0.0000 0.0000 -1.8755 18.5684 16.3796 5.4115 -7.1250 0.0000 -0.0000 -8.7907 47.0140 -0.4402 0.0000 0.0000 0.0000 86.7550 -2.9771 18.5138 -14.8701 23.9648 -3.1730 0.0000 -0.0000 -5.4493 -20.0733 12.7259 -4.6022 7.1250 -0.0000 -0.0000 4.9834 -16.4934 3.3764
-1.8805 20.6773 10.5054 -4.7252 1.0660 2.3058 0.0000 0.0000 0.0000 -14.5202 -3.2443 -10.7015 3.0829 10.8280 31.7021 0.7160 -12.1833 -16.2088 0.2848 3.4319 9.4836 0.0000 0.0000 0.0000 28.3311 1.3997 -9.4066 -2.6881 -10.1722 29.5362 -1.3199 5.2687 -20.6234 -0.2809 -3.4086 9.4186 2.1776 -1.2919 0.0749 3.3671 -1.6855 -0.8520 2.2473 -0.8460 -0.8771 -9.2319 -3.0952 -13.7263 4.7225 -3.7077 37.2164 3.0298 -2.2460 15.7397 0.0000 -0.0000 0.0000 -88.8208 9.0670 18.7967 16.6947 -26.4536 -3.9504 -0.0000 0.0000 -2.2191 18.9764 16.0675 5.4366 -7.1250 0.0000 -0.0000 -8.3287 46.7474 -0.3616 0.0000 -0.0000 0.0000 86.8816 -3.0858 18.4739 -15.0478 24.2127 -3.2455 0.0000 -0.0000 -5.6835 -20.0438 12.2231 -4.4169 7.1250 -0.0000 -0.0000 4.9897 -17.0256 3.3228
-1.9002 20.6515 10.5111 -4.7364 1.1585 2.1948 0.0000 0.0000 0.0000 -14.4591 -3.5665 -10.7983 3.1700 10.9653 32.1630 0.7241 -11.8560 -16.1822 0.1735 2.6832 7.3980 0.0000 0.0000 0.0000 28.4650 1.8192 -9.2213 -2.7073 -10.2055 29.6447 -1.4119 4.6911 -21.4182 -0.1214 -2.2464 6.1871 2.0503 -1.2696 0.2309 3.4212 -1.6500 -0.8362 2.3778 -0.8273 -0.9440 -9.2394 -2.8526 -13.5320 4.8214 -3.3915 37.3488 3.1348 -2.1036 15.7277 -0.0000 -0.0000 0.0000 -88.8912 9.2050 18.3883 16.8629 -26.6767 -4.0256 -0.0000 0.0000 -0.9453 17.3652 17.8748 5.4827 -7.1250 0.0000 -0.0000 -10.3489 48.3741 -0.8700 -0.0000 -0.0000 0.0000 86.8837 -3.2980 18.5744 -15.1094 24.2983 -3.2708 0.0000 -0.0000 -6.0061 -20.1788 12.0918 -4.4022 7.1250 -0.0000 -0.0000 4.8922 -17.1521 3.2438
-1.9142 20.6206 10.5212 -4.9437 1.1655 1.9159 0.0000 0.0000 0.0000 -14.2138 -3.9208 -10.8387 3.2915 11.1527 32.7965 0.7251 -11.6473 -16.1301 0.2000 2.8795 7.9434 0.0000 0.0000 0.0000 28.7800 2.0246 -8.8392 -2.7005 -10.1936 29.6061 -1.4435 4.4945 -21.6909 -0.1025 -2.0646 5.6842 2.1851 -1.2337 0.5251 3.4950 -1.5932 -0.6930 2.3827 -0.7996 -0.9653 -9.1624 -2.6553 -13.4894 4.8036 -3.1081 37.4229 3.1651 -1.9761 15.7219 -0.0000 0.0000 0.0000 -88.8930 9.2238 18.2876 16.9334 -26.7699 -4.0573 -0.0000 0.0000 -0.8470 17.2524 18.4061 5.6004 -7.1250 0.0000 -0.0000 -10.6222 48.8967 -1.0315 -0.0000 0.0000 0.0000 86.8836 -3.3131 18.6741 -15.1197 24.3125 -3.2750 0.0000 -0.0000 -6.0177 -20.1010 12.1848 -4.4169 7.1250 -0.0000 -0.0000 4.9488 -17.0609 3.2915
-1.9219 20.6004 10.5325 -5.4505 1.1370 1.6349 0.0000 0.0000 0.0000 -13.6474 -4.1134 -10.9225 3.4422 11.3787 33.5679 0.7374 -11.4043 -16.1721 0.1818 2.7462 7.5729 0.0000 0.0000 0.0000 29.3724 1.8159 -8.4675 -2.6770 -10.1529 29.4732 -1.4367 4.6273 -21.6204 -0.1108 -2.1464 5.9104 2.7375 -1.1342 0.7802 3.6117 -1.4491 -0.4980 2.1947 -0.7304 -0.9229 -8.9930 -2.4882 -13.6481 4.7733 -2.8756 37.6333 3.1696 -1.8589 15.8368 -0.0000 0.0000 0.0000 -88.8333 9.2220 19.1221 16.9234 -26.7567 -4.0528 -0.0000 0.0000 -3.1837 20.0875 16.8028 6.0347 -7.1250 0.0000 -0.0000 -7.4738 47.6629 -0.4937 -0.0000 0.0000 0.0000 86.9525 -3.3750 18.5956 -15.2428 24.4833 -3.3259 0.0000 -0.0000 -5.9277 -19.9702 12.0252 -4.3295 7.1250 -0.0000 -0.0000 5.0358 -17.2404 3.3300
-1.9286 20.5972 10.5429 -5.8106 1.2539 1.5447 0.0000 0.0000 0.0000 -13.2486 -4.2010 -11.1564 3.6162 11.6313 34.4399 0.7906 -10.9043 -16.5178 0.0309 1.1354 3.1215 0.0000 0.0000 0.0000 29.7696 1.5104 -8.3282 -2.6452 -10.0972 29.2922 -1.4404 4.7784 -21.6314 -0.1149 -2.1855 6.0185 3.1947 -1.0850 0.8178 3.6744 -1.3822 -0.3530 2.0012 -0.6981 -0.8059 -8.6600 -2.3019 -13.9538 4.5836 -2.5910 37.9443 3.0875 -1.7194 16.0297 -0.0000 0.0000 0.0000 -88.7492 9.1150 18.4551 17.1253 -27.0226 -4.1441 -0.0000 0.0000 -0.9424 17.4988 18.1619 5.6126 -7.1250 0.0000 -0.0000 -10.3112 48.6854 -0.9466 -0.0000 0.0000 0.0000 87.0599 -3.4213 18.5840 -15.3303 24.6042 -3.3622 0.0000 -0.0000 -6.0409 -20.1434 12.0442 -4.3769 7.1250 -0.0000 -0.0000 4.9156 -17.2054 3.2537
-1.9400 20.5968 10.5488 -6.3095 1.3416 1.4054 0.0000 0.0000 0.0000 -12.6716 -4.5052 -11.3333 3.7958 11.8836 35.3216 0.8259 -10.3616 -16.7078 0.0015 -0.2463 -0.6767 0.0000 0.0000 0.0000 30.3989 1.3327 -8.0737 -2.6202 -10.0532 29.1491 -1.4229 4.7391 -21.4987 -0.1212 -2.2443 6.1814 3.7336 -1.0386 0.8948 3.8141 -1.3192 -0.1372 1.8419 -0.6663 -0.6373 -8.5804 -2.1824 -14.2437 4.4929 -2.3639 38.0717 3.0785 -1.6238 16.1412 0.0000 0.0000 0.0000 -88.7279 8.9429 18.4194 17.2957 -27.2460 -4.2218 -0.0000 0.0000 -0.5241 16.9043 18.4141 5.4835 -7.1250 0.0000 -0.0000 -10.9553 48.8531 -1.0526 0.0000 0.0000 0.0000 87.0652 -3.3012 18.6947 -15.3648 24.6519 -3.3766 0.0000 -0.0000 -6.1180 -20.1878 12.0601 -4.3930 7.1250 -0.0000 -0.0000 4.8851 -17.1848 3.2355
-1.9495 20.5976 10.5533 -6.4881 1.4838 1.2776 0.0000 0.0000 0.0000 -12.4379 -5.1691 -11.6256 3.9995 12.1598 36.2996 0.7845 -10.1841 -16.2982 0.0002 -0.0889 -0.2444 0.0000 0.0000 0.0000 30.6478 0.9522 -7.8813 -2.5787 -9.9797 28.9109 -1.3134 5.2241 -20.5745 -0.3839 -3.9790 11.0176 3.9702 -0.9852 1.0674 3.8759 -1.2398 -0.0141 1.7743 -0.6262 -0.6118 -8.7875 -2.1372 -14.1579 4.6526 -2.2896 37.9762 3.1964 -1.5969 16.0698 0.0000 -0.0000 0.0000 -88.7175 8.7605 18.5474 17.3492 -27.3158 -4.2464 -0.0000 0.0000 -0.2491 16.4187 18.8690 5.4438 -7.1250 0.0000 -0.0000 -11.5671 49.2393 -1.2240 0.0000 -0.0000 0.0000 87.0240 -3.2835 18.6584 -15.3459 24.6258 -3.3688 0.0000 -0.0000 -6.2035 -20.0495 12.1519 -4.3930 7.1250 -0.0000 -0.0000 4.9838 -17.1001 3.3107
